<svg width="28" height="28" viewBox="0 0 28 28" fill="none" xmlns="http://www.w3.org/2000/svg">
<path d="M13.345 2.73869C13.6129 2.19811 14.3871 2.19811 14.6551 2.73869L17.6944 8.87035C17.8008 9.08501 18.0065 9.2338 18.2444 9.26822L25.0405 10.2515C25.6396 10.3382 25.8789 11.0713 25.4453 11.4921L20.5276 16.2649C20.3555 16.432 20.2769 16.6727 20.3175 16.9087L21.4785 23.648C21.5808 24.2422 20.9545 24.6953 20.4186 24.4148L14.34 21.2329C14.1272 21.1215 13.8729 21.1215 13.6601 21.2329L7.58152 24.4148C7.04562 24.6953 6.41928 24.2422 6.52163 23.648L7.68254 16.9087C7.72318 16.6727 7.64462 16.432 7.47245 16.2649L2.55477 11.4921C2.12122 11.0713 2.36046 10.3382 2.95961 10.2515L9.75569 9.26822C9.99361 9.2338 10.1993 9.08501 10.3057 8.87035L13.345 2.73869Z" fill="#141C24"/>
</svg>
